# Blender v2.81 (sub 16) OBJ File: 'full_light_testing.blend'
# www.blender.org
mtllib full_light_testing.mtl
o Plane
v -1.000000 0.000000 1.000000
v 1.000000 0.000000 1.000000
v -1.000000 0.000000 -1.000000
v 1.000000 0.000000 -1.000000
v 0.381258 -0.011087 0.931343
v 0.381258 0.520727 0.931343
v 0.381258 -0.011087 0.015834
v 0.381258 0.520727 0.015834
v 0.441673 -0.011087 0.931343
v 0.441673 0.520727 0.931343
v 0.441673 -0.011087 0.015834
v 0.441673 0.520727 0.015834
v 0.007469 -0.011087 0.408584
v 0.007469 0.520727 0.408584
v 0.007469 -0.011087 -0.004225
v 0.007469 0.520727 -0.004225
v 0.067884 -0.011087 0.408584
v 0.067884 0.520727 0.408584
v 0.067884 -0.011087 -0.004225
v 0.067884 0.520727 -0.004225
vt 0.000000 0.000000
vt 1.000000 0.000000
vt 1.000000 1.000000
vt 0.000000 1.000000
vt 0.375000 0.000000
vt 0.625000 0.000000
vt 0.625000 0.250000
vt 0.375000 0.250000
vt 0.625000 0.500000
vt 0.375000 0.500000
vt 0.625000 0.750000
vt 0.375000 0.750000
vt 0.625000 1.000000
vt 0.375000 1.000000
vt 0.125000 0.500000
vt 0.125000 0.750000
vt 0.875000 0.500000
vt 0.875000 0.750000
vt 0.375000 0.000000
vt 0.625000 0.000000
vt 0.625000 0.250000
vt 0.375000 0.250000
vt 0.625000 0.500000
vt 0.375000 0.500000
vt 0.625000 0.750000
vt 0.375000 0.750000
vt 0.625000 1.000000
vt 0.375000 1.000000
vt 0.125000 0.500000
vt 0.125000 0.750000
vt 0.875000 0.500000
vt 0.875000 0.750000
vn 0.0000 1.0000 0.0000
vn -1.0000 0.0000 0.0000
vn 0.0000 0.0000 -1.0000
vn 1.0000 0.0000 0.0000
vn 0.0000 0.0000 1.0000
vn 0.0000 -1.0000 0.0000
usemtl None
s off
f 1/1/1 2/2/1 4/3/1 3/4/1
f 5/5/2 6/6/2 8/7/2 7/8/2
f 7/8/3 8/7/3 12/9/3 11/10/3
f 11/10/4 12/9/4 10/11/4 9/12/4
f 9/12/5 10/11/5 6/13/5 5/14/5
f 7/15/6 11/10/6 9/12/6 5/16/6
f 12/9/1 8/17/1 6/18/1 10/11/1
f 13/19/2 14/20/2 16/21/2 15/22/2
f 15/22/3 16/21/3 20/23/3 19/24/3
f 19/24/4 20/23/4 18/25/4 17/26/4
f 17/26/5 18/25/5 14/27/5 13/28/5
f 15/29/6 19/24/6 17/26/6 13/30/6
f 20/23/1 16/31/1 14/32/1 18/25/1
o Icosphere
v -0.469177 0.125240 0.544705
v -0.311955 0.243083 0.656781
v -0.525136 0.243083 0.726049
v -0.656892 0.243084 0.544705
v -0.525136 0.243083 0.363362
v -0.311955 0.243083 0.432630
v -0.407294 0.433762 0.726049
v -0.620476 0.433762 0.656781
v -0.620476 0.433762 0.432630
v -0.407294 0.433762 0.363362
v -0.275539 0.433761 0.544705
v -0.469177 0.551605 0.544705
v -0.500848 0.157078 0.651296
v -0.375544 0.157078 0.610581
v -0.410176 0.226344 0.717173
v -0.284872 0.226345 0.544705
v -0.375544 0.157078 0.478829
v -0.578292 0.157078 0.544705
v -0.612925 0.226345 0.651296
v -0.500848 0.157078 0.438115
v -0.612925 0.226345 0.438115
v -0.410176 0.226344 0.372238
v -0.269390 0.338423 0.610582
v -0.269390 0.338423 0.478829
v -0.469177 0.338423 0.757888
v -0.346833 0.338423 0.717174
v -0.668964 0.338423 0.610582
v -0.591521 0.338423 0.717174
v -0.591521 0.338423 0.372237
v -0.668964 0.338423 0.478829
v -0.346833 0.338423 0.372237
v -0.469177 0.338423 0.331523
v -0.319505 0.450500 0.651296
v -0.522254 0.450501 0.717173
v -0.647559 0.450500 0.544705
v -0.522254 0.450501 0.372238
v -0.319505 0.450500 0.438115
v -0.431583 0.519767 0.651296
v -0.354139 0.519767 0.544705
v -0.556887 0.519767 0.610581
v -0.556887 0.519767 0.478829
v -0.431583 0.519767 0.438115
vt 0.181819 0.000000
vt 0.227273 0.078731
vt 0.136365 0.078731
vt 0.272728 0.157461
vt 0.318182 0.078731
vt 0.363637 0.157461
vt 0.909091 0.000000
vt 0.954545 0.078731
vt 0.863636 0.078731
vt 0.727273 0.000000
vt 0.772727 0.078731
vt 0.681818 0.078731
vt 0.545455 0.000000
vt 0.590909 0.078731
vt 0.500000 0.078731
vt 0.318182 0.236191
vt 0.090910 0.157461
vt 0.181819 0.157461
vt 0.136365 0.236191
vt 0.818182 0.157461
vt 0.909091 0.157461
vt 0.863636 0.236191
vt 0.636364 0.157461
vt 0.727273 0.157461
vt 0.681818 0.236191
vt 0.454546 0.157461
vt 0.545455 0.157461
vt 0.500000 0.236191
vt 0.227273 0.236191
vt 0.045455 0.236191
vt 0.772727 0.236191
vt 0.590909 0.236191
vt 0.409092 0.236191
vt 0.181819 0.314921
vt 0.272728 0.314921
vt 0.227273 0.393651
vt 0.000000 0.314921
vt 0.090910 0.314921
vt 0.045455 0.393651
vt 0.727273 0.314921
vt 0.818182 0.314921
vt 0.772727 0.393651
vt 0.545455 0.314921
vt 0.636364 0.314921
vt 0.590909 0.393651
vt 0.363637 0.314921
vt 0.454546 0.314921
vt 0.409092 0.393651
vt 0.500000 0.393651
vt 0.454546 0.472382
vt 0.681818 0.393651
vt 0.636364 0.472382
vt 0.863636 0.393651
vt 0.818182 0.472382
vt 0.909091 0.314921
vt 0.136365 0.393651
vt 0.090910 0.472382
vt 0.318182 0.393651
vt 0.272728 0.472382
vt 0.954545 0.236191
vt 1.000000 0.157461
vt 0.409092 0.078731
vt 0.363637 0.000000
vn 0.1015 -0.9446 0.3123
vn 0.7002 -0.6617 0.2680
vn -0.2745 -0.9407 0.1994
vn -0.2745 -0.9407 -0.1994
vn 0.1015 -0.9446 -0.3123
vn 0.9217 -0.2831 0.2650
vn 0.0249 -0.3298 0.9437
vn -0.8897 -0.3304 0.3151
vn -0.5746 -0.3304 -0.7488
vn 0.5361 -0.3030 -0.7879
vn 0.8067 -0.0761 0.5861
vn -0.3131 -0.1304 0.9407
vn -0.9921 -0.1256 0.0000
vn -0.3131 -0.1304 -0.9407
vn 0.8067 -0.0761 -0.5861
vn 0.4089 0.6617 0.6284
vn -0.4713 0.6617 0.5831
vn -0.7002 0.6617 -0.2680
vn 0.0385 0.6617 -0.7488
vn 0.7240 0.6617 -0.1947
vn 0.2619 0.9462 -0.1903
vn 0.4911 0.7947 -0.3568
vn 0.4089 0.6617 -0.6284
vn -0.1033 0.9425 -0.3179
vn -0.1876 0.7947 -0.5773
vn -0.4713 0.6617 -0.5831
vn -0.3412 0.9400 0.0000
vn -0.6071 0.7947 0.0000
vn -0.7002 0.6617 0.2680
vn -0.1033 0.9425 0.3179
vn -0.1876 0.7947 0.5773
vn 0.0385 0.6617 0.7488
vn 0.2619 0.9462 0.1903
vn 0.4911 0.7947 0.3568
vn 0.7240 0.6617 0.1947
vn 0.9012 0.2842 -0.3271
vn 0.8003 0.1466 -0.5814
vn 0.5845 0.3005 -0.7537
vn -0.0246 0.3310 -0.9433
vn -0.3099 0.1915 -0.9313
vn -0.5346 0.3304 -0.7779
vn -0.9050 0.3304 -0.2680
vn -0.9822 0.1876 0.0000
vn -0.9050 0.3304 0.2680
vn -0.5346 0.3304 0.7779
vn -0.3099 0.1915 0.9313
vn -0.0246 0.3310 0.9433
vn 0.5845 0.3005 0.7537
vn 0.8003 0.1466 0.5814
vn 0.9012 0.2842 0.3271
vn 0.3138 0.1112 -0.9430
vn 0.3108 -0.1757 -0.9341
vn 0.0249 -0.3298 -0.9437
vn -0.8026 0.1256 -0.5831
vn -0.7947 -0.1876 -0.5773
vn -0.8897 -0.3304 -0.3151
vn -0.8026 0.1256 0.5831
vn -0.7947 -0.1876 0.5773
vn -0.5746 -0.3304 0.7488
vn 0.3138 0.1112 0.9430
vn 0.3108 -0.1757 0.9341
vn 0.5361 -0.3030 0.7879
vn 0.9979 0.0644 0.0000
vn 0.9906 -0.1368 0.0000
vn 0.9217 -0.2831 -0.2650
vn 0.4713 -0.6617 -0.5831
vn 0.1876 -0.7947 -0.5773
vn -0.0385 -0.6617 -0.7488
vn -0.4089 -0.6617 -0.6284
vn -0.4911 -0.7947 -0.3568
vn -0.7240 -0.6617 -0.1947
vn -0.7240 -0.6617 0.1947
vn -0.4911 -0.7947 0.3568
vn -0.4089 -0.6617 0.6284
vn 0.7002 -0.6617 -0.2680
vn 0.6071 -0.7947 0.0000
vn 0.3219 -0.9468 0.0000
vn -0.0385 -0.6617 0.7488
vn 0.1876 -0.7947 0.5773
vn 0.4713 -0.6617 0.5831
usemtl None
s off
f 21/33/7 34/34/7 33/35/7
f 22/36/8 34/37/8 36/38/8
f 21/39/9 33/40/9 38/41/9
f 21/42/10 38/43/10 40/44/10
f 21/45/11 40/46/11 37/47/11
f 22/36/12 36/38/12 43/48/12
f 23/49/13 35/50/13 45/51/13
f 24/52/14 39/53/14 47/54/14
f 25/55/15 41/56/15 49/57/15
f 26/58/16 42/59/16 51/60/16
f 22/36/17 43/48/17 46/61/17
f 23/49/18 45/51/18 48/62/18
f 24/52/19 47/54/19 50/63/19
f 25/55/20 49/57/20 52/64/20
f 26/58/21 51/60/21 44/65/21
f 27/66/22 53/67/22 58/68/22
f 28/69/23 54/70/23 60/71/23
f 29/72/24 55/73/24 61/74/24
f 30/75/25 56/76/25 62/77/25
f 31/78/26 57/79/26 59/80/26
f 59/80/27 62/81/27 32/82/27
f 59/80/28 57/79/28 62/81/28
f 57/79/29 30/75/29 62/81/29
f 62/77/30 61/83/30 32/84/30
f 62/77/31 56/76/31 61/83/31
f 56/76/32 29/72/32 61/83/32
f 61/74/33 60/85/33 32/86/33
f 61/74/34 55/73/34 60/85/34
f 55/73/35 28/87/35 60/85/35
f 60/71/36 58/88/36 32/89/36
f 60/71/37 54/70/37 58/88/37
f 54/70/38 27/66/38 58/88/38
f 58/68/39 59/90/39 32/91/39
f 58/68/40 53/67/40 59/90/40
f 53/67/41 31/78/41 59/90/41
f 44/65/42 57/79/42 31/78/42
f 44/65/43 51/60/43 57/79/43
f 51/60/44 30/75/44 57/79/44
f 52/64/45 56/76/45 30/75/45
f 52/64/46 49/57/46 56/76/46
f 49/57/47 29/72/47 56/76/47
f 50/63/48 55/73/48 29/72/48
f 50/63/49 47/54/49 55/73/49
f 47/54/50 28/87/50 55/73/50
f 48/62/51 54/70/51 28/69/51
f 48/62/52 45/51/52 54/70/52
f 45/51/53 27/66/53 54/70/53
f 46/61/54 53/67/54 27/66/54
f 46/61/55 43/48/55 53/67/55
f 43/48/56 31/78/56 53/67/56
f 51/60/57 52/64/57 30/75/57
f 51/60/58 42/59/58 52/64/58
f 42/59/59 25/55/59 52/64/59
f 49/57/60 50/63/60 29/72/60
f 49/57/61 41/56/61 50/63/61
f 41/56/62 24/52/62 50/63/62
f 47/54/63 48/92/63 28/87/63
f 47/54/64 39/53/64 48/92/64
f 39/53/65 23/93/65 48/92/65
f 45/51/66 46/61/66 27/66/66
f 45/51/67 35/50/67 46/61/67
f 35/50/68 22/36/68 46/61/68
f 43/48/69 44/65/69 31/78/69
f 43/48/70 36/38/70 44/65/70
f 36/38/71 26/58/71 44/65/71
f 37/47/72 42/59/72 26/58/72
f 37/47/73 40/46/73 42/59/73
f 40/46/74 25/55/74 42/59/74
f 40/44/75 41/56/75 25/55/75
f 40/44/76 38/43/76 41/56/76
f 38/43/77 24/52/77 41/56/77
f 38/41/78 39/53/78 24/52/78
f 38/41/79 33/40/79 39/53/79
f 33/40/80 23/93/80 39/53/80
f 36/38/81 37/94/81 26/58/81
f 36/38/82 34/37/82 37/94/82
f 34/37/83 21/95/83 37/94/83
f 33/35/84 35/50/84 23/49/84
f 33/35/85 34/34/85 35/50/85
f 34/34/86 22/36/86 35/50/86
o Plane.001
v -0.888223 0.034695 0.454762
v -0.888223 0.570583 0.454762
v -0.888223 0.034695 0.410316
v -0.888223 0.570583 0.410316
v -0.042820 0.034695 0.454762
v -0.042820 0.570583 0.454762
v -0.042820 0.034695 0.410316
v -0.042820 0.570583 0.410316
v -0.136754 0.034695 0.349087
v -0.230687 0.034695 0.299269
v -0.324621 0.034695 0.265776
v -0.418555 0.034695 0.253520
v -0.512488 0.034695 0.253520
v -0.606422 0.034695 0.265776
v -0.700356 0.034695 0.299269
v -0.794289 0.034695 0.349087
v -0.794289 0.570583 0.349087
v -0.700356 0.570583 0.299269
v -0.606422 0.570583 0.265776
v -0.512488 0.570583 0.253520
v -0.418555 0.570583 0.253520
v -0.324621 0.570583 0.265776
v -0.230687 0.570583 0.299269
v -0.136754 0.570583 0.349087
v -0.794289 0.034695 0.393786
v -0.700356 0.034695 0.344221
v -0.606422 0.034695 0.310976
v -0.512488 0.034695 0.298909
v -0.418555 0.034695 0.298909
v -0.324621 0.034695 0.310976
v -0.230687 0.034695 0.344221
v -0.136754 0.034695 0.393786
v -0.136754 0.570583 0.393786
v -0.230687 0.570583 0.344221
v -0.324621 0.570583 0.310976
v -0.418555 0.570583 0.298909
v -0.512488 0.570583 0.298909
v -0.606422 0.570583 0.310976
v -0.700356 0.570583 0.344221
v -0.794289 0.570583 0.393786
vt 0.375000 0.000000
vt 0.625000 0.000000
vt 0.625000 0.250000
vt 0.375000 0.250000
vt 0.375000 0.472222
vt 0.625000 0.472222
vt 0.625000 0.500000
vt 0.375000 0.500000
vt 0.625000 0.750000
vt 0.375000 0.750000
vt 0.375000 0.972222
vt 0.625000 0.972222
vt 0.625000 1.000000
vt 0.375000 1.000000
vt 0.347222 0.500000
vt 0.347222 0.750000
vt 0.847222 0.500000
vt 0.875000 0.500000
vt 0.875000 0.750000
vt 0.847222 0.750000
vt 0.652778 0.500000
vt 0.652778 0.750000
vt 0.680556 0.500000
vt 0.680556 0.750000
vt 0.708333 0.500000
vt 0.708333 0.750000
vt 0.736111 0.500000
vt 0.736111 0.750000
vt 0.763889 0.500000
vt 0.763889 0.750000
vt 0.791667 0.500000
vt 0.791667 0.750000
vt 0.819444 0.500000
vt 0.819444 0.750000
vt 0.125000 0.500000
vt 0.152778 0.500000
vt 0.152778 0.750000
vt 0.125000 0.750000
vt 0.180556 0.500000
vt 0.180556 0.750000
vt 0.208333 0.500000
vt 0.208333 0.750000
vt 0.236111 0.500000
vt 0.236111 0.750000
vt 0.263889 0.500000
vt 0.263889 0.750000
vt 0.291667 0.500000
vt 0.291667 0.750000
vt 0.319444 0.500000
vt 0.319444 0.750000
vt 0.625000 0.777778
vt 0.375000 0.777778
vt 0.625000 0.805556
vt 0.375000 0.805556
vt 0.625000 0.833333
vt 0.375000 0.833333
vt 0.625000 0.861111
vt 0.375000 0.861111
vt 0.625000 0.888889
vt 0.375000 0.888889
vt 0.625000 0.916667
vt 0.375000 0.916667
vt 0.625000 0.944444
vt 0.375000 0.944444
vt 0.625000 0.277778
vt 0.375000 0.277778
vt 0.625000 0.305556
vt 0.375000 0.305556
vt 0.625000 0.333333
vt 0.375000 0.333333
vt 0.625000 0.361111
vt 0.375000 0.361111
vt 0.625000 0.388889
vt 0.375000 0.388889
vt 0.625000 0.416667
vt 0.375000 0.416667
vt 0.625000 0.444444
vt 0.375000 0.444444
vn -1.0000 0.0000 0.0000
vn 0.5461 0.0000 -0.8377
vn 1.0000 0.0000 0.0000
vn 0.5445 0.0000 0.8388
vn 0.0000 -1.0000 0.0000
vn 0.0000 1.0000 0.0000
vn -0.5445 0.0000 0.8388
vn -0.4667 0.0000 0.8844
vn -0.3336 0.0000 0.9427
vn -0.1274 0.0000 0.9919
vn 0.0000 0.0000 1.0000
vn 0.1274 0.0000 0.9919
vn 0.3336 0.0000 0.9427
vn 0.4667 0.0000 0.8844
vn -0.5461 0.0000 -0.8377
vn -0.4685 0.0000 -0.8834
vn -0.3359 0.0000 -0.9419
vn -0.1294 0.0000 -0.9916
vn 0.0000 0.0000 -1.0000
vn 0.1294 0.0000 -0.9916
vn 0.3359 0.0000 -0.9419
vn 0.4685 0.0000 -0.8834
usemtl None
s off
f 63/96/87 64/97/87 66/98/87 65/99/87
f 71/100/88 86/101/88 70/102/88 69/103/88
f 69/103/89 70/102/89 68/104/89 67/105/89
f 87/106/90 102/107/90 64/108/90 63/109/90
f 71/110/91 69/103/91 67/105/91 94/111/91
f 79/112/92 66/113/92 64/114/92 102/115/92
f 70/102/92 86/116/92 95/117/92 68/104/92
f 86/116/92 85/118/92 96/119/92 95/117/92
f 85/118/92 84/120/92 97/121/92 96/119/92
f 84/120/92 83/122/92 98/123/92 97/121/92
f 83/122/92 82/124/92 99/125/92 98/123/92
f 82/124/92 81/126/92 100/127/92 99/125/92
f 81/126/92 80/128/92 101/129/92 100/127/92
f 80/128/92 79/112/92 102/115/92 101/129/92
f 65/130/91 78/131/91 87/132/91 63/133/91
f 78/131/91 77/134/91 88/135/91 87/132/91
f 77/134/91 76/136/91 89/137/91 88/135/91
f 76/136/91 75/138/91 90/139/91 89/137/91
f 75/138/91 74/140/91 91/141/91 90/139/91
f 74/140/91 73/142/91 92/143/91 91/141/91
f 73/142/91 72/144/91 93/145/91 92/143/91
f 72/144/91 71/110/91 94/111/91 93/145/91
f 67/105/93 68/104/93 95/146/93 94/147/93
f 94/147/94 95/146/94 96/148/94 93/149/94
f 93/149/95 96/148/95 97/150/95 92/151/95
f 92/151/96 97/150/96 98/152/96 91/153/96
f 91/153/97 98/152/97 99/154/97 90/155/97
f 90/155/98 99/154/98 100/156/98 89/157/98
f 89/157/99 100/156/99 101/158/99 88/159/99
f 88/159/100 101/158/100 102/107/100 87/106/100
f 65/99/101 66/98/101 79/160/101 78/161/101
f 78/161/102 79/160/102 80/162/102 77/163/102
f 77/163/103 80/162/103 81/164/103 76/165/103
f 76/165/104 81/164/104 82/166/104 75/167/104
f 75/167/105 82/166/105 83/168/105 74/169/105
f 74/169/106 83/168/106 84/170/106 73/171/106
f 73/171/107 84/170/107 85/172/107 72/173/107
f 72/173/108 85/172/108 86/101/108 71/100/108
