# Blender v2.93.1 OBJ File: 'indirect_lighting_test.blend'
# www.blender.org
mtllib indirect_lighting_test.mtl
o Cube_Cube.002
v -1.000000 -1.000000 1.000000
v -1.000000 -0.800000 1.000000
v -1.000000 -1.000000 -1.000000
v -1.000000 -0.800000 -1.000000
v 1.000000 -1.000000 1.000000
v 1.000000 -0.800000 1.000000
v 1.000000 -1.000000 -1.000000
v 1.000000 -0.800000 -1.000000
v -1.000000 -1.000000 1.200000
v -1.000000 -0.800000 1.200000
v -1.000000 -0.800000 -1.200000
v -1.000000 -1.000000 -1.200000
v 1.000000 -1.000000 -1.200000
v 1.000000 -0.800000 -1.200000
v 1.000000 -0.800000 1.200000
v 1.000000 -1.000000 1.200000
v -1.000000 0.625452 -1.000000
v 1.000000 0.625452 -1.000000
v 1.000000 0.625452 1.000000
v -1.000000 0.625452 1.000000
v -1.000000 0.625452 -1.200000
v 1.000000 0.625452 -1.200000
v 1.000000 0.625452 1.200000
v -1.000000 0.625452 1.200000
v -1.000000 -0.204162 0.091509
v 1.000000 -0.204162 0.091509
v -1.000000 -0.204162 -0.108491
v 1.000000 -0.204162 -0.108491
v -1.000000 0.807223 0.091509
v 1.000000 0.807223 0.091509
v -1.000000 0.807223 -0.108491
v 1.000000 0.807223 -0.108491
vt 0.625000 0.000000
vt 0.375000 0.250000
vt 0.375000 0.000000
vt 0.625000 0.250000
vt 0.375000 0.250000
vt 0.625000 0.500000
vt 0.375000 0.750000
vt 0.375000 0.500000
vt 0.875000 0.500000
vt 0.875000 0.500000
vt 0.125000 0.750000
vt 0.125000 0.500000
vt 0.625000 0.750000
vt 0.625000 0.250000
vt 0.375000 0.500000
vt 0.625000 0.750000
vt 0.375000 1.000000
vt 0.375000 0.750000
vt 0.625000 0.000000
vt 0.125000 0.750000
vt 0.625000 0.500000
vt 0.625000 0.750000
vt 0.625000 0.500000
vt 0.875000 0.500000
vt 0.875000 0.750000
vt 0.625000 0.750000
vt 0.625000 0.250000
vt 0.625000 1.000000
vt 0.625000 1.000000
vt 0.625000 0.500000
vt 0.625000 0.000000
vt 0.875000 0.750000
vt 0.625000 0.500000
vt 0.875000 0.500000
vt 0.875000 0.500000
vt 0.625000 0.500000
vt 0.875000 0.500000
vt 0.625000 0.250000
vt 0.625000 0.250000
vt 0.625000 0.250000
vt 0.625000 0.500000
vt 0.625000 0.500000
vt 0.375000 0.000000
vt 0.125000 0.500000
vt 0.875000 0.750000
vt 0.625000 0.250000
vt 0.625000 0.000000
vt 0.625000 0.250000
vn -1.0000 0.0000 0.0000
vn 1.0000 0.0000 0.0000
vn 0.0000 0.0000 1.0000
vn 0.0000 -1.0000 0.0000
vn 0.0000 1.0000 0.0000
vn 0.0000 0.0000 -1.0000
usemtl None
s off
f 2/1/1 3/2/1 1/3/1
f 4/4/1 12/5/1 3/2/1
f 8/6/2 5/7/2 7/8/2
f 8/6/3 17/9/3 4/10/3
f 7/8/4 1/11/4 3/12/4
f 4/10/5 6/13/5 8/6/5
f 11/14/6 13/15/6 12/5/6
f 15/16/3 9/17/3 16/18/3
f 1/3/1 10/19/1 2/1/1
f 5/7/4 9/20/4 1/11/4
f 7/8/2 14/21/2 8/6/2
f 3/12/4 13/15/4 7/8/4
f 6/13/2 23/22/2 15/16/2
f 6/13/2 16/18/2 5/7/2
f 18/23/5 21/24/5 17/9/5
f 20/25/5 23/22/5 19/26/5
f 4/4/1 21/27/1 11/14/1
f 15/16/3 24/28/3 10/29/3
f 11/14/6 22/30/6 14/21/6
f 10/19/1 20/31/1 2/1/1
f 2/32/6 19/26/6 6/13/6
f 14/21/2 18/23/2 8/6/2
f 26/33/3 29/34/3 25/35/3
f 30/36/5 31/37/5 29/34/5
f 25/38/1 31/39/1 27/40/1
f 27/40/6 32/41/6 28/42/6
f 28/42/2 30/36/2 26/33/2
f 25/38/4 28/42/4 26/33/4
f 2/1/1 4/4/1 3/2/1
f 4/4/1 11/14/1 12/5/1
f 8/6/2 6/13/2 5/7/2
f 8/6/3 18/23/3 17/9/3
f 7/8/4 5/7/4 1/11/4
f 4/10/5 2/32/5 6/13/5
f 11/14/6 14/21/6 13/15/6
f 15/16/3 10/29/3 9/17/3
f 1/3/1 9/43/1 10/19/1
f 5/7/4 16/18/4 9/20/4
f 7/8/2 13/15/2 14/21/2
f 3/12/4 12/44/4 13/15/4
f 6/13/2 19/26/2 23/22/2
f 6/13/2 15/16/2 16/18/2
f 18/23/5 22/30/5 21/24/5
f 20/25/5 24/45/5 23/22/5
f 4/4/1 17/46/1 21/27/1
f 15/16/3 23/22/3 24/28/3
f 11/14/6 21/27/6 22/30/6
f 10/19/1 24/47/1 20/31/1
f 2/32/6 20/25/6 19/26/6
f 14/21/2 22/30/2 18/23/2
f 26/33/3 30/36/3 29/34/3
f 30/36/5 32/41/5 31/37/5
f 25/38/1 29/48/1 31/39/1
f 27/40/6 31/39/6 32/41/6
f 28/42/2 32/41/2 30/36/2
f 25/38/4 27/40/4 28/42/4
