# Blender v2.93.1 OBJ File: ''
# www.blender.org
mtllib uncapped_cylinder.mtl
o Plane
v -1.000000 0.000000 1.000000
v 1.000000 0.000000 1.000000
v -1.000000 0.000000 -1.000000
v 1.000000 0.000000 -1.000000
v -1.000000 0.037037 -0.833333
v -1.000000 0.129630 -0.666667
v -1.000000 0.250000 -0.500000
v -1.000000 0.370370 -0.333333
v -1.000000 0.462963 -0.166667
v -1.000000 0.500000 0.000000
v -1.000000 0.462963 0.166667
v -1.000000 0.370370 0.333333
v -1.000000 0.250000 0.500000
v -1.000000 0.129630 0.666667
v -1.000000 0.037037 0.833333
v 1.000000 0.037037 0.833333
v 1.000000 0.129630 0.666667
v 1.000000 0.250000 0.500000
v 1.000000 0.370370 0.333333
v 1.000000 0.462963 0.166667
v 1.000000 0.500000 -0.000000
v 1.000000 0.462963 -0.166667
v 1.000000 0.370370 -0.333333
v 1.000000 0.250000 -0.500000
v 1.000000 0.129630 -0.666667
v 1.000000 0.037037 -0.833333
vt 1.000000 0.916667
vt 0.000000 1.000000
vt 0.000000 0.916667
vt 1.000000 0.000000
vt 0.000000 0.083333
vt 0.000000 0.000000
vt 1.000000 0.083333
vt 0.000000 0.166667
vt 1.000000 0.166667
vt 0.000000 0.250000
vt 1.000000 0.250000
vt 0.000000 0.333333
vt 1.000000 0.333333
vt 0.000000 0.416667
vt 1.000000 0.416667
vt 0.000000 0.500000
vt 1.000000 0.500000
vt 0.000000 0.583333
vt 1.000000 0.583333
vt 0.000000 0.666667
vt 1.000000 0.666667
vt 0.000000 0.750000
vt 1.000000 0.750000
vt 0.000000 0.833333
vt 1.000000 0.833333
vt 1.000000 1.000000
vn -0.0000 0.9762 -0.2169
vn 0.0000 0.9762 0.2169
vn 0.0000 0.8742 0.4856
vn 0.0000 0.8107 0.5855
vn -0.0000 0.8742 -0.4856
vn -0.0000 0.8107 -0.5855
usemtl None
s off
f 26/1/1 3/2/1 5/3/1
f 2/4/2 15/5/2 1/6/2
f 16/7/3 14/8/3 15/5/3
f 17/9/4 13/10/4 14/8/4
f 18/11/4 12/12/4 13/10/4
f 19/13/3 11/14/3 12/12/3
f 20/15/2 10/16/2 11/14/2
f 21/17/1 9/18/1 10/16/1
f 22/19/5 8/20/5 9/18/5
f 23/21/6 7/22/6 8/20/6
f 24/23/6 6/24/6 7/22/6
f 25/25/5 5/3/5 6/24/5
f 26/1/1 4/26/1 3/2/1
f 2/4/2 16/7/2 15/5/2
f 16/7/3 17/9/3 14/8/3
f 17/9/4 18/11/4 13/10/4
f 18/11/4 19/13/4 12/12/4
f 19/13/3 20/15/3 11/14/3
f 20/15/2 21/17/2 10/16/2
f 21/17/1 22/19/1 9/18/1
f 22/19/5 23/21/5 8/20/5
f 23/21/6 24/23/6 7/22/6
f 24/23/6 25/25/6 6/24/6
f 25/25/5 26/1/5 5/3/5
