# Blender v2.81 (sub 16) OBJ File: ''
# www.blender.org
mtllib axes.mtl
o Cube.001
v -0.051083 0.051083 -0.051083
v -0.051083 0.051083 0.051083
v -0.051083 0.808505 0.051083
v -0.051083 0.808505 -0.051083
v -0.051083 -0.051083 0.051083
v -0.123726 -0.123726 0.991250
v -0.123726 0.123726 0.991250
v -0.164881 0.023331 -0.023331
v -0.164881 0.023331 0.023331
v -0.051083 -0.051083 -0.051083
v 0.051083 -0.051083 -0.051083
v 0.013568 -0.203022 -0.013568
v -0.013568 -0.203022 -0.013568
v 0.051083 0.051083 -0.051083
v 0.051083 0.051083 0.051083
v 0.921175 0.012589 0.012589
v 0.921175 0.012589 -0.012589
v -0.009943 0.009943 -0.217719
v -0.009943 -0.009943 -0.217719
v 0.123726 -0.123726 0.991250
v 0.123726 0.123726 0.991250
v 0.009943 0.009943 -0.217719
v 0.009943 -0.009943 -0.217719
v 0.051083 -0.051083 0.051083
v 0.013568 -0.203022 0.013568
v 0.051083 0.808505 -0.051083
v 0.051083 0.808505 0.051083
v -0.013568 -0.203022 0.013568
v 0.921175 -0.012589 -0.012589
v 0.921175 -0.012589 0.012589
v -0.164881 -0.023331 0.023331
v -0.164881 -0.023331 -0.023331
vt 0.625000 0.000000
vt 0.625000 0.250000
vt 0.625000 0.250000
vt 0.375000 0.000000
vt 0.625000 0.000000
vt 0.625000 0.000000
vt 0.375000 0.500000
vt 0.125000 0.500000
vt 0.125000 0.500000
vt 0.625000 0.750000
vt 0.625000 0.500000
vt 0.625000 0.500000
vt 0.375000 0.250000
vt 0.375000 0.250000
vt 0.625000 0.750000
vt 0.375000 1.000000
vt 0.375000 0.750000
vt 0.625000 0.250000
vt 0.375000 0.500000
vt 0.875000 0.500000
vt 0.875000 0.500000
vt 0.375000 0.750000
vt 0.125000 0.750000
vt 0.125000 0.750000
vt 0.875000 0.750000
vt 0.625000 0.500000
vt 0.375000 0.500000
vt 0.625000 0.750000
vt 0.625000 0.500000
vt 0.875000 0.750000
vt 0.125000 0.750000
vt 0.375000 0.750000
vt 0.625000 0.000000
vt 0.375000 0.750000
vt 0.375000 0.500000
vt 0.625000 0.750000
vt 0.375000 0.250000
vt 0.375000 0.000000
vt 0.625000 0.250000
vt 0.125000 0.500000
vt 0.375000 0.000000
vt 0.625000 1.000000
vt 0.125000 0.500000
vt 0.875000 0.750000
vt 0.875000 0.500000
vt 0.125000 0.750000
vn -1.0000 -0.0000 0.0000
vn -0.9970 0.0000 -0.0770
vn -0.2369 0.9715 0.0000
vn 0.0000 -0.2397 -0.9708
vn 0.0442 0.9990 0.0000
vn -0.9708 0.0000 -0.2397
vn 0.0000 0.0000 1.0000
vn 0.0000 0.0000 -1.0000
vn 0.0000 -0.9708 -0.2397
vn 0.0000 0.9708 -0.2397
vn 0.0000 -0.9970 -0.0770
vn 0.0000 0.9970 -0.0770
vn 0.9970 0.0000 -0.0770
vn 0.9708 0.0000 -0.2397
vn 0.9708 -0.2397 0.0000
vn 1.0000 0.0000 0.0000
vn -0.9708 -0.2397 0.0000
vn 0.0000 -0.2397 0.9708
vn 0.0000 -1.0000 0.0000
vn 0.0000 1.0000 0.0000
vn 0.0442 -0.0000 0.9990
vn 0.0442 0.0000 -0.9990
vn 0.0442 -0.9990 -0.0000
vn -0.2369 0.0000 -0.9715
vn -0.2369 -0.0000 0.9715
vn -0.2369 -0.9715 -0.0000
usemtl Material.001
s 1
f 2/1/1 4/2/1 1/3/1
f 5/4/2 7/5/2 2/1/2
f 1/3/3 9/6/3 2/1/3
f 11/7/4 13/8/4 10/9/4
f 15/10/5 17/11/5 14/12/5
f 1/3/6 19/13/6 10/14/6
f 21/15/7 6/16/7 20/17/7
f 18/18/8 23/19/8 19/13/8
f 10/9/9 23/19/9 11/7/9
f 14/12/10 18/20/10 1/21/10
f 24/22/11 6/23/11 5/24/11
f 2/25/12 21/15/12 15/10/12
f 15/10/13 20/17/13 24/22/13
f 11/7/14 22/26/14 14/12/14
f 24/22/15 12/27/15 11/7/15
f 14/12/16 27/28/16 15/10/16
f 1/21/8 26/29/8 14/12/8
f 15/10/7 3/30/7 2/25/7
f 10/9/17 28/31/17 5/24/17
f 5/24/18 25/32/18 24/22/18
f 12/27/19 28/31/19 13/8/19
f 26/29/20 3/33/20 27/28/20
f 17/11/16 30/34/16 29/35/16
f 24/22/21 16/36/21 15/10/21
f 14/12/22 29/35/22 11/7/22
f 11/7/23 30/34/23 24/22/23
f 9/6/1 32/37/1 31/38/1
f 10/14/24 8/39/24 1/3/24
f 2/1/25 31/38/25 5/4/25
f 5/24/26 32/40/26 10/9/26
f 2/1/1 3/33/1 4/2/1
f 5/4/2 6/41/2 7/5/2
f 1/3/3 8/39/3 9/6/3
f 11/7/4 12/27/4 13/8/4
f 15/10/5 16/36/5 17/11/5
f 1/3/6 18/18/6 19/13/6
f 21/15/7 7/42/7 6/16/7
f 18/18/8 22/26/8 23/19/8
f 10/9/9 19/43/9 23/19/9
f 14/12/10 22/26/10 18/20/10
f 24/22/11 20/17/11 6/23/11
f 2/25/12 7/44/12 21/15/12
f 15/10/13 21/15/13 20/17/13
f 11/7/14 23/19/14 22/26/14
f 24/22/15 25/32/15 12/27/15
f 14/12/16 26/29/16 27/28/16
f 1/21/8 4/45/8 26/29/8
f 15/10/7 27/28/7 3/30/7
f 10/9/17 13/8/17 28/31/17
f 5/24/18 28/31/18 25/32/18
f 12/27/19 25/32/19 28/31/19
f 26/29/20 4/45/20 3/33/20
f 17/11/16 16/36/16 30/34/16
f 24/22/21 30/34/21 16/36/21
f 14/12/22 17/11/22 29/35/22
f 11/7/23 29/35/23 30/34/23
f 9/6/1 8/39/1 32/37/1
f 10/14/24 32/37/24 8/39/24
f 2/1/25 9/6/25 31/38/25
f 5/24/26 31/46/26 32/40/26
