# Blender v2.93.1 OBJ File: ''
# www.blender.org
mtllib spaceship.mtl
o Cube.001
v 0.000000 -1.774189 -2.221458
v 0.000000 12.081022 -2.221456
v 1.660000 12.081022 -1.659998
v 1.660000 -1.774189 -1.660000
v 2.221458 12.081022 0.000002
v 2.221458 -1.774189 -0.000000
v 0.000000 -1.774189 -0.000000
v 1.492386 14.253249 -1.492384
v 1.917384 14.253249 0.000002
v 1.500000 -0.356941 -2.500000
v 1.500000 -1.770688 -2.500000
v 0.805374 -1.770688 -1.805374
v 0.805374 -0.356941 -1.805374
v 2.500000 0.747628 -2.500000
v 2.500000 -1.405283 -2.500000
v 2.500000 -0.356941 -1.500000
v 2.500000 -1.770688 -1.500000
v 1.805374 -0.356941 -0.805374
v 1.805374 -1.770688 -0.805374
v 1.500000 -3.558195 -2.500000
v 2.500000 -3.558195 -2.500000
v 2.500000 -3.558195 -1.500001
v 1.500000 -3.558195 -1.500001
v 1.500000 2.382076 -1.500000
v 1.500000 -2.523116 -1.500000
v 0.805374 -2.523116 -0.805374
v 0.805374 2.382076 -0.805374
v 0.000000 14.253249 -1.917382
v 0.000000 16.029850 -1.221325
v 0.900000 16.029850 -0.899997
v 0.000000 16.323051 -0.365703
v 0.442261 16.323051 -0.442258
v 1.221328 16.029850 0.000003
v 0.000000 16.323051 0.000003
v 0.365706 16.323051 0.000003
v -1.660000 -1.774189 -1.660000
v -1.660000 12.081022 -1.659998
v -2.221458 -1.774189 -0.000000
v -2.221458 12.081022 0.000002
v -1.917384 14.253249 0.000002
v -1.492386 14.253249 -1.492384
v -1.500000 -0.356941 -2.500000
v -0.805374 -0.356941 -1.805374
v -0.805374 -1.770688 -1.805374
v -1.500000 -1.770688 -2.500000
v -2.500000 -1.405283 -2.500000
v -2.500000 0.747628 -2.500000
v -2.500000 -1.770688 -1.500000
v -2.500000 -0.356941 -1.500000
v -1.805374 -1.770688 -0.805374
v -1.805374 -0.356941 -0.805374
v -1.500000 -3.558195 -2.500000
v -1.500000 -3.558195 -1.500001
v -2.500000 -3.558195 -1.500001
v -2.500000 -3.558195 -2.500000
v -1.500000 2.382076 -1.500000
v -1.500000 -2.523116 -1.500000
v -0.805374 -2.523116 -0.805374
v -0.805374 2.382076 -0.805374
v -0.900000 16.029850 -0.899997
v -0.442261 16.323051 -0.442258
v -1.221328 16.029850 0.000003
v -0.365706 16.323051 0.000003
v 0.000000 -1.774189 2.221458
v 1.660000 -1.774189 1.660000
v 1.660000 12.081022 1.660002
v 0.000000 12.081022 2.221460
v 1.492386 14.253249 1.492388
v 1.500000 -0.356941 2.500000
v 0.805374 -0.356941 1.805374
v 0.805374 -1.770688 1.805374
v 1.500000 -1.770688 2.500000
v 2.500000 -1.405283 2.500000
v 2.500000 0.747628 2.500000
v 2.500000 -1.770688 1.500000
v 2.500000 -0.356941 1.500000
v 1.805374 -1.770688 0.805374
v 1.805374 -0.356941 0.805374
v 1.500000 -3.558196 2.500000
v 1.500000 -3.558195 1.499999
v 2.500000 -3.558195 1.499999
v 2.500000 -3.558196 2.500000
v 1.500000 2.382076 1.500000
v 1.500000 -2.523116 1.500000
v 0.805374 -2.523116 0.805374
v 0.805374 2.382076 0.805374
v 0.900000 16.029850 0.900003
v 0.000000 16.029850 1.221331
v 0.000000 14.253249 1.917386
v 0.442261 16.323051 0.442264
v 0.000000 16.323051 0.365709
v -1.660000 12.081022 1.660002
v -1.660000 -1.774189 1.660000
v -1.492386 14.253249 1.492388
v -1.500000 -0.356941 2.500000
v -1.500000 -1.770688 2.500000
v -0.805374 -1.770688 1.805374
v -0.805374 -0.356941 1.805374
v -2.500000 0.747628 2.500000
v -2.500000 -1.405283 2.500000
v -2.500000 -0.356941 1.500000
v -2.500000 -1.770688 1.500000
v -1.805374 -0.356941 0.805374
v -1.805374 -1.770688 0.805374
v -1.500000 -3.558196 2.500000
v -2.500000 -3.558196 2.500000
v -2.500000 -3.558195 1.499999
v -1.500000 -3.558195 1.499999
v -1.500000 2.382076 1.500000
v -1.500000 -2.523116 1.500000
v -0.805374 -2.523116 0.805374
v -0.805374 2.382076 0.805374
v -0.900000 16.029850 0.900003
v -0.442261 16.323051 0.442264
vt 0.625000 0.375000
vt 0.375000 0.500000
vt 0.375000 0.375000
vt 0.625000 0.500000
vt 0.375000 0.625000
vt 0.250000 0.625000
vt 0.250000 0.500000
vt 0.625000 0.625000
vt 0.625000 0.500000
vt 0.625000 0.625000
vt 0.500000 0.250000
vt 0.625000 0.250000
vt 0.625000 0.250000
vt 0.500000 0.500000
vt 0.625000 0.750000
vt 0.500000 0.750000
vt 0.500000 0.750000
vt 0.375000 0.500000
vt 0.125000 0.750000
vt 0.125000 0.500000
vt 0.625000 0.500000
vt 0.875000 0.500000
vt 0.875000 0.750000
vt 0.375000 0.750000
vt 0.500000 1.000000
vt 0.375000 1.000000
vt 0.375000 0.250000
vt 0.500000 0.000000
vt 0.375000 0.000000
vt 0.500000 0.000000
vt 0.500000 0.250000
vt 0.625000 0.750000
vt 0.500000 1.000000
vt 0.875000 0.500000
vt 0.875000 0.750000
vt 0.625000 0.375000
vt 0.625000 0.500000
vt 0.625000 0.375000
vt 0.625000 0.500000
vt 0.625000 0.625000
vt 0.750000 0.500000
vt 0.625000 0.625000
vt 0.375000 0.500000
vt 0.375000 0.625000
vt 0.625000 0.500000
vt 0.625000 0.625000
vt 0.625000 0.500000
vt 0.625000 0.250000
vt 0.500000 0.250000
vt 0.625000 0.250000
vt 0.500000 0.500000
vt 0.625000 0.750000
vt 0.625000 0.500000
vt 0.500000 0.750000
vt 0.500000 0.750000
vt 0.125000 0.750000
vt 0.375000 0.500000
vt 0.125000 0.500000
vt 0.875000 0.750000
vt 0.875000 0.500000
vt 0.375000 0.750000
vt 0.500000 1.000000
vt 0.375000 0.250000
vt 0.500000 0.000000
vt 0.375000 0.000000
vt 0.500000 0.000000
vt 0.625000 0.000000
vt 0.500000 1.000000
vt 0.625000 0.750000
vt 0.875000 0.500000
vt 0.500000 0.250000
vt 0.625000 0.500000
vt 0.625000 0.500000
vt 0.625000 0.625000
vt 0.625000 0.625000
vt 0.625000 0.625000
vt 0.375000 0.500000
vt 0.625000 0.375000
vt 0.375000 0.375000
vt 0.625000 0.500000
vt 0.250000 0.500000
vt 0.625000 0.500000
vt 0.625000 0.250000
vt 0.500000 0.250000
vt 0.625000 0.250000
vt 0.500000 0.500000
vt 0.625000 0.750000
vt 0.625000 0.500000
vt 0.500000 0.750000
vt 0.500000 0.750000
vt 0.125000 0.750000
vt 0.375000 0.500000
vt 0.125000 0.500000
vt 0.875000 0.750000
vt 0.875000 0.500000
vt 0.375000 0.750000
vt 0.500000 1.000000
vt 0.375000 0.250000
vt 0.500000 0.000000
vt 0.375000 0.000000
vt 0.500000 0.000000
vt 0.625000 0.000000
vt 0.500000 1.000000
vt 0.625000 0.750000
vt 0.875000 0.500000
vt 0.500000 0.250000
vt 0.625000 0.500000
vt 0.625000 0.375000
vt 0.625000 0.500000
vt 0.625000 0.375000
vt 0.750000 0.500000
vt 0.375000 0.500000
vt 0.625000 0.500000
vt 0.625000 0.500000
vt 0.500000 0.250000
vt 0.625000 0.250000
vt 0.625000 0.250000
vt 0.500000 0.500000
vt 0.625000 0.750000
vt 0.500000 0.750000
vt 0.500000 0.750000
vt 0.375000 0.500000
vt 0.125000 0.750000
vt 0.125000 0.500000
vt 0.625000 0.500000
vt 0.875000 0.500000
vt 0.875000 0.750000
vt 0.375000 0.750000
vt 0.500000 1.000000
vt 0.375000 1.000000
vt 0.375000 0.250000
vt 0.500000 0.000000
vt 0.375000 0.000000
vt 0.500000 0.000000
vt 0.500000 0.250000
vt 0.625000 0.750000
vt 0.500000 1.000000
vt 0.875000 0.500000
vt 0.875000 0.750000
vt 0.625000 0.500000
vt 0.625000 0.500000
vt 0.625000 0.000000
vt 0.625000 1.000000
vt 0.625000 0.375000
vt 0.750000 0.625000
vt 0.375000 1.000000
vt 0.625000 1.000000
vt 0.875000 0.750000
vt 0.375000 1.000000
vt 0.625000 1.000000
vt 0.875000 0.750000
vt 0.625000 0.375000
vt 0.625000 0.000000
vt 0.625000 1.000000
vn 0.0000 0.0593 -0.9982
vn 0.5550 -0.6196 -0.5550
vn 0.0000 -0.6416 -0.7670
vn 0.7057 0.0633 -0.7057
vn 0.7670 -0.6416 -0.0000
vn 0.0000 -1.0000 -0.0000
vn 0.9982 0.0593 0.0000
vn 0.6828 0.2601 -0.6828
vn 0.9687 0.2482 0.0000
vn -0.4673 -0.1224 -0.8756
vn -0.9064 0.0800 -0.4147
vn -0.4074 0.1041 -0.9073
vn 0.7071 0.0000 -0.7071
vn 0.9073 0.1041 0.4074
vn 0.8756 -0.1224 0.4673
vn 0.4295 -0.2865 0.8564
vn 0.5774 -0.5774 -0.5774
vn -0.5774 -0.5774 0.5774
vn -0.5774 -0.5774 -0.5774
vn 0.6352 0.4392 -0.6352
vn 0.2091 0.9553 -0.2091
vn 0.5774 -0.5774 0.5774
vn -0.5129 -0.6884 0.5129
vn -0.4962 -0.7124 0.4962
vn -0.8564 -0.2865 -0.4295
vn 0.4147 0.0800 0.9064
vn -0.4231 0.8012 0.4231
vn -0.0000 0.2482 -0.9687
vn 0.5140 0.6868 -0.5139
vn -0.0000 0.6656 -0.7463
vn 0.1874 0.9642 -0.1874
vn 0.7463 0.6656 -0.0000
vn 0.0000 0.9843 -0.1762
vn 0.1762 0.9843 -0.0000
vn -0.5550 -0.6196 -0.5550
vn -0.7670 -0.6416 -0.0000
vn -0.7057 0.0633 -0.7057
vn -0.9982 0.0593 0.0000
vn -0.6828 0.2601 -0.6828
vn 0.9064 0.0800 -0.4147
vn 0.4673 -0.1224 -0.8756
vn 0.4074 0.1041 -0.9073
vn -0.7071 0.0000 -0.7071
vn -0.9073 0.1041 0.4074
vn -0.6352 0.4392 -0.6352
vn -0.4295 -0.2865 0.8564
vn -0.8756 -0.1224 0.4673
vn -0.2091 0.9553 -0.2091
vn 0.5129 -0.6884 0.5129
vn 0.4962 -0.7124 0.4962
vn 0.4231 0.8012 0.4231
vn -0.4147 0.0800 0.9064
vn 0.8564 -0.2865 -0.4295
vn -0.5140 0.6868 -0.5140
vn -0.1874 0.9642 -0.1874
vn -0.9687 0.2482 0.0000
vn -0.1762 0.9843 -0.0000
vn -0.7463 0.6656 0.0000
vn 0.5550 -0.6196 0.5550
vn -0.0000 0.0593 0.9982
vn 0.0000 -0.6416 0.7670
vn 0.7057 0.0633 0.7057
vn 0.6828 0.2601 0.6828
vn -0.9064 0.0800 0.4147
vn -0.4673 -0.1224 0.8756
vn -0.4074 0.1041 0.9073
vn 0.7071 -0.0000 0.7071
vn 0.9073 0.1041 -0.4074
vn 0.6352 0.4392 0.6352
vn 0.4295 -0.2865 -0.8564
vn 0.8756 -0.1224 -0.4673
vn 0.2091 0.9553 0.2091
vn -0.5129 -0.6884 -0.5129
vn -0.4962 -0.7124 -0.4962
vn -0.4231 0.8012 -0.4231
vn 0.4147 0.0800 -0.9064
vn -0.8564 -0.2865 0.4295
vn 0.5140 0.6868 0.5140
vn 0.0000 0.2482 0.9687
vn 0.1874 0.9642 0.1874
vn 0.0000 0.6656 0.7463
vn 0.0000 0.9843 0.1762
vn -0.5550 -0.6196 0.5550
vn -0.7057 0.0633 0.7057
vn -0.6828 0.2601 0.6828
vn 0.4673 -0.1224 0.8756
vn 0.9064 0.0800 0.4147
vn 0.4074 0.1041 0.9073
vn -0.7071 -0.0000 0.7071
vn -0.9073 0.1041 -0.4074
vn -0.8756 -0.1224 -0.4673
vn -0.4295 -0.2865 -0.8564
vn -0.6352 0.4392 0.6352
vn -0.2091 0.9553 0.2091
vn 0.5129 -0.6884 -0.5129
vn 0.4962 -0.7124 -0.4962
vn 0.8564 -0.2865 0.4295
vn -0.4147 0.0800 -0.9064
vn 0.4231 0.8012 -0.4231
vn -0.5140 0.6868 0.5139
vn -0.1874 0.9642 0.1874
vn 0.0000 1.0000 0.0000
usemtl Material.001
s 1
f 2/1/1 4/2/2 1/3/3
f 3/4/4 6/5/5 4/2/2
f 4/2/2 7/6/6 1/7/3
f 5/8/7 8/9/8 9/10/9
f 11/11/10 13/12/11 10/13/12
f 10/13/12 15/14/13 11/11/10
f 15/14/13 16/15/14 17/16/15
f 16/15/14 19/17/16 17/16/15
f 21/18/17 23/19/18 20/20/19
f 14/21/20 10/22/12 24/23/21
f 16/15/14 14/21/20 24/23/21
f 22/24/22 25/25/23 23/26/18
f 21/18/17 17/16/15 22/24/22
f 11/11/10 21/18/17 20/27/19
f 25/28/23 20/27/19 23/29/18
f 26/30/24 13/12/11 12/31/25
f 18/32/26 26/33/24 19/17/16
f 25/25/23 19/17/16 26/33/24
f 24/23/21 13/34/11 27/35/27
f 24/23/21 18/32/26 16/15/14
f 25/28/23 12/31/25 11/11/10
f 28/36/28 30/37/29 8/9/8
f 2/1/1 8/9/8 3/4/4
f 29/38/30 32/39/31 30/37/29
f 9/10/9 30/37/29 33/40/32
f 31/41/33 35/42/34 32/39/31
f 33/40/32 32/39/31 35/42/34
f 36/43/35 2/1/1 1/3/3
f 38/44/36 37/45/37 36/43/35
f 7/6/6 36/43/35 1/7/3
f 39/46/38 41/47/39 37/45/37
f 43/48/40 45/49/41 42/50/42
f 46/51/43 42/50/42 45/49/41
f 46/51/43 49/52/44 47/53/45
f 50/54/46 49/52/44 48/55/47
f 53/56/22 55/57/19 52/58/17
f 47/53/45 56/59/48 42/60/42
f 49/52/44 56/59/48 47/53/45
f 54/61/18 57/62/49 48/55/47
f 55/57/19 48/55/47 46/51/43
f 55/57/19 45/49/41 52/63/17
f 52/63/17 57/64/49 53/65/22
f 58/66/50 43/48/40 59/67/51
f 58/68/50 51/69/52 50/54/46
f 57/62/49 50/54/46 48/55/47
f 56/59/48 43/70/40 42/60/42
f 51/69/52 56/59/48 49/52/44
f 44/71/53 57/64/49 45/49/41
f 60/72/54 28/36/28 41/47/39
f 41/47/39 2/1/1 37/45/37
f 61/73/55 29/38/30 60/72/54
f 40/74/56 60/72/54 41/47/39
f 63/75/57 31/41/33 61/73/55
f 62/76/58 61/73/55 60/72/54
f 65/77/59 67/78/60 64/79/61
f 6/5/5 66/80/62 65/77/59
f 7/6/6 65/77/59 64/81/61
f 5/8/7 68/82/63 66/80/62
f 70/83/64 72/84/65 69/85/66
f 73/86/67 69/85/66 72/84/65
f 73/86/67 76/87/68 74/88/69
f 77/89/70 76/87/68 75/90/71
f 80/91/19 82/92/22 79/93/18
f 74/88/69 83/94/72 69/95/66
f 76/87/68 83/94/72 74/88/69
f 81/96/17 84/97/73 75/90/71
f 82/92/22 75/90/71 73/86/67
f 82/92/22 72/84/65 79/98/18
f 79/98/18 84/99/73 80/100/19
f 85/101/74 70/83/64 86/102/75
f 85/103/74 78/104/76 77/89/70
f 84/97/73 77/89/70 75/90/71
f 83/94/72 70/105/64 69/95/66
f 78/104/76 83/94/72 76/87/68
f 71/106/77 84/99/73 72/84/65
f 87/107/78 89/108/79 68/82/63
f 68/82/63 67/78/60 66/80/62
f 90/109/80 88/110/81 87/107/78
f 9/10/9 87/107/78 68/82/63
f 35/42/34 91/111/82 90/109/80
f 33/40/32 90/109/80 87/107/78
f 67/78/60 93/112/83 64/79/61
f 92/113/84 38/44/36 93/112/83
f 93/112/83 7/6/6 64/81/61
f 39/46/38 94/114/85 40/74/56
f 96/115/86 98/116/87 95/117/88
f 95/117/88 100/118/89 96/115/86
f 100/118/89 101/119/90 102/120/91
f 101/119/90 104/121/92 102/120/91
f 106/122/18 108/123/17 105/124/22
f 99/125/93 95/126/88 109/127/94
f 101/119/90 99/125/93 109/127/94
f 107/128/19 110/129/95 108/130/17
f 106/122/18 102/120/91 107/128/19
f 96/115/86 106/122/18 105/131/22
f 110/132/95 105/131/22 108/133/17
f 111/134/96 98/116/87 97/135/97
f 103/136/98 111/137/96 104/121/92
f 110/129/95 104/121/92 111/137/96
f 109/127/94 98/138/87 112/139/99
f 109/127/94 103/136/98 101/119/90
f 110/132/95 97/135/97 96/115/86
f 89/108/79 113/140/100 94/114/85
f 67/78/60 94/114/85 92/113/84
f 88/110/81 114/141/101 113/140/100
f 40/74/56 113/140/100 62/76/58
f 91/111/82 63/75/57 114/141/101
f 62/76/58 114/141/101 63/75/57
f 2/1/1 3/4/4 4/2/2
f 3/4/4 5/8/7 6/5/5
f 4/2/2 6/5/5 7/6/6
f 5/8/7 3/4/4 8/9/8
f 11/11/10 12/31/25 13/12/11
f 10/13/12 14/21/20 15/14/13
f 15/14/13 14/21/20 16/15/14
f 16/15/14 18/32/26 19/17/16
f 21/18/17 22/24/22 23/19/18
f 22/24/22 17/16/15 25/25/23
f 21/18/17 15/14/13 17/16/15
f 11/11/10 15/14/13 21/18/17
f 25/28/23 11/11/10 20/27/19
f 26/30/24 27/142/27 13/12/11
f 18/32/26 27/143/27 26/33/24
f 25/25/23 17/16/15 19/17/16
f 24/23/21 10/22/12 13/34/11
f 24/23/21 27/35/27 18/32/26
f 25/28/23 26/30/24 12/31/25
f 28/36/28 29/38/30 30/37/29
f 2/1/1 28/36/28 8/9/8
f 29/38/30 31/144/33 32/39/31
f 9/10/9 8/9/8 30/37/29
f 31/41/33 34/145/102 35/42/34
f 33/40/32 30/37/29 32/39/31
f 36/43/35 37/45/37 2/1/1
f 38/44/36 39/46/38 37/45/37
f 7/6/6 38/44/36 36/43/35
f 39/46/38 40/74/56 41/47/39
f 43/48/40 44/71/53 45/49/41
f 46/51/43 47/53/45 42/50/42
f 46/51/43 48/55/47 49/52/44
f 50/54/46 51/69/52 49/52/44
f 53/56/22 54/61/18 55/57/19
f 54/61/18 53/146/22 57/62/49
f 55/57/19 54/61/18 48/55/47
f 55/57/19 46/51/43 45/49/41
f 52/63/17 45/49/41 57/64/49
f 58/66/50 44/71/53 43/48/40
f 58/68/50 59/147/51 51/69/52
f 57/62/49 58/68/50 50/54/46
f 56/59/48 59/148/51 43/70/40
f 51/69/52 59/148/51 56/59/48
f 44/71/53 58/66/50 57/64/49
f 60/72/54 29/38/30 28/36/28
f 41/47/39 28/36/28 2/1/1
f 61/73/55 31/144/33 29/38/30
f 40/74/56 62/76/58 60/72/54
f 63/75/57 34/145/102 31/41/33
f 62/76/58 63/75/57 61/73/55
f 65/77/59 66/80/62 67/78/60
f 6/5/5 5/8/7 66/80/62
f 7/6/6 6/5/5 65/77/59
f 5/8/7 9/10/9 68/82/63
f 70/83/64 71/106/77 72/84/65
f 73/86/67 74/88/69 69/85/66
f 73/86/67 75/90/71 76/87/68
f 77/89/70 78/104/76 76/87/68
f 80/91/19 81/96/17 82/92/22
f 81/96/17 80/149/19 84/97/73
f 82/92/22 81/96/17 75/90/71
f 82/92/22 73/86/67 72/84/65
f 79/98/18 72/84/65 84/99/73
f 85/101/74 71/106/77 70/83/64
f 85/103/74 86/150/75 78/104/76
f 84/97/73 85/103/74 77/89/70
f 83/94/72 86/151/75 70/105/64
f 78/104/76 86/151/75 83/94/72
f 71/106/77 85/101/74 84/99/73
f 87/107/78 88/110/81 89/108/79
f 68/82/63 89/108/79 67/78/60
f 90/109/80 91/152/82 88/110/81
f 9/10/9 33/40/32 87/107/78
f 35/42/34 34/145/102 91/111/82
f 33/40/32 35/42/34 90/109/80
f 67/78/60 92/113/84 93/112/83
f 92/113/84 39/46/38 38/44/36
f 93/112/83 38/44/36 7/6/6
f 39/46/38 92/113/84 94/114/85
f 96/115/86 97/135/97 98/116/87
f 95/117/88 99/125/93 100/118/89
f 100/118/89 99/125/93 101/119/90
f 101/119/90 103/136/98 104/121/92
f 106/122/18 107/128/19 108/123/17
f 107/128/19 102/120/91 110/129/95
f 106/122/18 100/118/89 102/120/91
f 96/115/86 100/118/89 106/122/18
f 110/132/95 96/115/86 105/131/22
f 111/134/96 112/153/99 98/116/87
f 103/136/98 112/154/99 111/137/96
f 110/129/95 102/120/91 104/121/92
f 109/127/94 95/126/88 98/138/87
f 109/127/94 112/139/99 103/136/98
f 110/132/95 111/134/96 97/135/97
f 89/108/79 88/110/81 113/140/100
f 67/78/60 89/108/79 94/114/85
f 88/110/81 91/152/82 114/141/101
f 40/74/56 94/114/85 113/140/100
f 91/111/82 34/145/102 63/75/57
f 62/76/58 113/140/100 114/141/101
